<?xml version="1.0" encoding="utf-8"?>
<!-- Generator: Adobe Illustrator 16.0.3, SVG Export Plug-In . SVG Version: 6.00 Build 0)  -->
<!DOCTYPE svg PUBLIC "-//W3C//DTD SVG 1.1//EN" "http://www.w3.org/Graphics/SVG/1.1/DTD/svg11.dtd">
<svg version="1.1" id="レイヤー_1" xmlns="http://www.w3.org/2000/svg" xmlns:xlink="http://www.w3.org/1999/xlink" x="0px"
	 y="0px" width="378px" height="378px" viewBox="0 0 378 378" enable-background="new 0 0 378 378" xml:space="preserve">
<path fill="#187FC4" d="M242,271c1.695,4.701,6.525,10.033,9,15.5c-2.772,2.504-8.883,3.641-9.502,7.231
	c1.229,3.744,3.976,7.224,5.859,10.761c8.84,14.425,17.385,29.02,25.978,43.578c4.466,7.66,9.222,15.153,13.665,22.821
	c2.047,3.26,3.999,8.364,8.583,5.315c3.724-1.893,7.152-4.303,10.785-6.336c5.908-3.865,13.373-7.617,18.632-11.371
	c-17.919-27.921-33.786-57.446-51.5-85.5c-3.275,2.652-8.248,4.159-11,7c-3.217-5.05-8.33-12.162-9.5-17
	c38.73-21.211,63.161-64.852,66.673-108.143c2.765-36.744-9.714-74.25-34.15-101.835C262.5,25.187,227.144,8.914,191.661,5.632
	c-36.876-3.741-74.152,9.85-102.091,33.419c-27.225,23.546-45.523,57.907-47.765,94.071c-4.1,36.212,8.997,73.733,32.188,101.339
	c22.771,28.136,57.716,44.995,93.21,49.171c13.274,1.423,26.604,0.201,39.674-1.979c6.042-1.244,11.987-2.832,17.848-4.735
	C230.45,275.507,236.569,271.449,242,271z M61.04,144.962c0.817,32.228,13.363,64.373,37.562,86.14
	c22.932,23.06,56.603,34.247,88.68,32.733c31.142-1.914,61.883-15.68,82.239-39.784c21.188-23.102,31.969-55.162,30.295-86.371
	c-1.821-31.162-16.568-60.795-39.423-81.776c-23.412-20.994-55.794-32.921-87.366-30.146c-30.113,1.34-59.287,15.477-79.758,37.477
	c-9.801,10.249-18.593,24.836-23.436,36.838C64.079,114.277,61.093,129.492,61.04,144.962z"/>
<g>
	<ellipse cx="180" cy="144.224" rx="115.023" ry="122.224"/>
	<ellipse fill="#FFFFFF" cx="180" cy="144.224" rx="115.023" ry="122.224"/>
</g>
<path fill="none" d="M0,378c126.002,0,251.998,0,378,0c0-126.008,0-252.008,0-378C252.002,0,125.993,0,0,0
	C0,126.002,0,251.998,0,378z M243,270c1.484,6.318,9.003,11.588,9,18c-3.09,0.886-6.873,3.382-10,5.5
	c17.733,27.184,32.793,56.283,50.5,83.5c9.421-6.57,21.564-12.924,30.5-18.5c-8.202-13.979-16.921-27.754-24.926-41.865
	C291.045,302.813,279.412,288.154,274,275c-5.188,0.729-10.94,9.215-15.096,1.912c-2.869-4.445-6.977-9.814-6.904-14.912
	c38.73-21.211,63.161-64.852,66.673-108.143c2.504-36.225-10.605-73.157-34.545-100.263c-22.87-27.403-57.806-43.558-92.885-46.913
	c-36.423-3.733-73.095,10.315-100.673,33.371c-27.021,23.435-45.414,57.565-47.698,93.547c-4.166,35.562,9.448,72.265,31.771,99.482
	c22.604,27.935,57.13,45.255,92.491,49.415c13.38,1.724,26.908,0.275,40.063-2.093c6.132-1.327,12.202-2.964,18.115-5.03
	C231.177,273.564,236.675,269.841,243,270z M60.025,144.773c0.572,32.491,12.904,65.032,37.208,86.959
	c22.677,23.237,56.18,34.221,88.101,33.231c31.741-0.821,62.603-14.629,83.793-38.352c21.957-23.039,33.068-55.326,31.828-86.959
	c-1.194-31.5-15.22-62.287-38.43-83.628c-23.204-21.978-55.939-33.322-87.707-31.511c-30.657,1.009-60.883,14.354-81.793,36.961
	C82.774,72.109,74.907,85.057,69.033,98.526C63.188,113.146,59.89,128.733,60.025,144.773z M277.344,192
	c5.065-1.34,6.638-5.907,8.522-10.19c1.953-4.512,3.449-9.187,4.429-14.004c4.623-19.556,1.467-40.328-5.838-58.795
	c-3.711-8.354-7.401-16.855-13.32-23.968c-3.205-4.401-8.153-1.088-11.76,1.112c-4.085,2.257-8.278,4.319-12.328,6.629
	C243.76,94.946,239.95,96.213,236,96c-0.479-6.105,3.482-9.656,6.458-14.517c2.732-3.719,5.269-7.577,7.921-11.341
	c6.399-7.253-5.569-13.561-10.056-17.13c-19.342-13.662-43.357-22.953-67.362-21.001c-8.422,0.415-19.806,1.871-23.961,8.489
	c5.19,7.115,13.38,13.066,18.135,22.566c17.121,26.668,24.907,73.986-8.791,99.296c-9.42,9.489-19.389,18.831-28.701,28.517
	c-7.917,8.211-12.008,19.142-16.658,29.303c-1.34,4.072-4.767,9.925-1.858,14.046c1.328,2.263,3.627,3.112,5.861,3.858
	c4.401-0.354,5.901-6.364,6.798-10.175c2.736-17.53,10.395-33.813,23.112-46.42c7.029-8.326,18.553-17.371,27.722-26.487
	c3.907-4.351,8.848-6.1,13.897-5.477c17.652-1.63,35.768,1.494,51.458,9.965C255.535,166.36,266.38,179.698,277.344,192z"/>
<path fill="#FABD00" d="M235,95.474c0.11-4.497,4.492-9.088,7.109-13.439c4.353-6.509,13.641-15.307,6.888-21.833
	c-19.184-16.904-43.956-27.913-69.606-29.32c-8.406,0.495-16.938,0.39-25.046,3.069c-5.279,0.734-10.995,6.089-5.393,11.825
	c12.49,12.55,22.603,28.086,26.757,45.482c4.593,17.398,3.508,39.96-3.702,55.008c-13.211,12.296-26.196,24.737-38.982,37.683
	c-7.051,6.35-13.319,13.598-17.003,22.46c-3.836,7.525-7.057,15.467-9.597,23.472c-1.081,6.284,9.311,14.944,14.03,6.353
	c3.01-6.273,3.289-13.496,5.38-20.061c6.271-21.889,24.015-37.85,40.053-52.611c4.548-3.523,8.111-8.35,13.229-11.141
	c16.358-4.657,37.48-0.095,51.563,5.537c14.974,6.046,27.483,16.423,37.706,28.747c2.281,3.02,5.835,7.344,9.419,5.898
	c5.372-1.426,6.945-10.595,9.093-14.525c1.914-6.021,3.38-12.208,3.994-18.486c2.733-21.101-3.152-42.39-12.049-61.306
	c-2.233-4.047-4.563-8.041-7.211-11.826c-4.556-8.621-12.25-2.684-17.827,0.577C247.969,89.67,240.485,95.172,235,95.474z"/>
<path fill="#FDEBB0" d="M180,30.313c1.279,1.357,4.493-0.188,6,0.188c-2.008-0.157-3.993-0.388-6-0.5
	C180,30.104,180,30.208,180,30.313z"/>
<path fill="#FAC835" d="M142,176.453c0.443,0.428,1.045-0.069,1.42-0.374c0.197-0.197,0.391-0.39,0.58-0.58
	C143.277,175.096,142.293,175.906,142,176.453z"/>
</svg>
